<svg xmlns="http://www.w3.org/2000/svg" version="1.1" xmlns:xlink="http://www.w3.org/1999/xlink" xmlns:svgjs="http://svgjs.dev/svgjs" width="2000" height="1500" viewBox="0 0 2000 1500"><rect width="2000" height="1500" fill="#000000"></rect><g transform="matrix(0.75,0,0,0.75,249.090909090909,655.1173319488225)"><svg viewBox="0 0 396 50" data-background-color="#000000" preserveAspectRatio="xMidYMid meet" height="252" width="2000" xmlns="http://www.w3.org/2000/svg" xmlns:xlink="http://www.w3.org/1999/xlink"><g id="tight-bounds" transform="matrix(1,0,0,1,0.2400000000000091,0.10123493417393092)"><svg viewBox="0 0 395.52 49.79753013165214" height="49.79753013165214" width="395.52"><g><svg viewBox="0 0 395.52 49.79753013165214" height="49.79753013165214" width="395.52"><g><svg viewBox="0 0 395.52 49.79753013165214" height="49.79753013165214" width="395.52"><g id="textblocktransform"><svg viewBox="0 0 395.52 49.79753013165214" height="49.79753013165214" width="395.52" id="textblock"><g><svg viewBox="0 0 395.52 49.79753013165214" height="49.79753013165214" width="395.52"><g transform="matrix(1,0,0,1,0,0)"><svg width="395.52" viewBox="3.6 -33.75 269.62 33.95" height="49.79753013165214" data-palette-color="url(#dcd278fe-39bc-4c19-8dfe-62efd3ea6714)"></svg></g></svg></g></svg></g></svg></g></svg></g><defs></defs><mask id="d82ae5fa-1802-4fe0-8252-0bbeeb98bfd2"><g id="SvgjsG2247"><svg viewBox="0 0 395.52 49.79753013165214" height="49.79753013165214" width="395.52"><g><svg viewBox="0 0 395.52 49.79753013165214" height="49.79753013165214" width="395.52"><g><svg viewBox="0 0 395.52 49.79753013165214" height="49.79753013165214" width="395.52"><g id="SvgjsG2246"><svg viewBox="0 0 395.52 49.79753013165214" height="49.79753013165214" width="395.52" id="SvgjsSvg2245"><g><svg viewBox="0 0 395.52 49.79753013165214" height="49.79753013165214" width="395.52"><g transform="matrix(1,0,0,1,0,0)"><svg width="395.52" viewBox="3.6 -33.75 269.62 33.95" height="49.79753013165214" data-palette-color="url(#dcd278fe-39bc-4c19-8dfe-62efd3ea6714)"><path d="M9.25-1.8Q9.1-1.05 8.38-0.53 7.65 0 6.35 0L6.35 0Q5.25 0 4.63-0.6 4-1.2 3.95-1.85L3.95-1.85Q4.25-3.95 4.25-8.15L4.25-8.15Q4.25-10.65 3.95-15.85L3.95-15.85Q3.6-20.75 3.6-24.55L3.6-24.55Q3.6-26.6 3.8-28.75L3.8-28.75Q3.8-29.45 4.63-30.25 5.45-31.05 6.9-31.25L6.9-31.25Q11.65-31.75 18.55-31.75L18.55-31.75 20.15-31.75Q21.95-31.75 23.68-31.1 25.4-30.45 25.4-28.85L25.4-28.85Q25.4-27.8 24.9-27.2 24.4-26.6 23.05-26.6L23.05-26.6Q22.4-26.6 21.55-26.7 20.7-26.8 20.35-26.85L20.35-26.85Q18.45-27.15 17.4-27.15L17.4-27.15Q11.6-27.15 8.65-26.35L8.65-26.35Q8.65-24.7 8.75-21L8.75-21 8.8-17.8Q11.4-17.8 13.45-18.03 15.5-18.25 15.8-18.3L15.8-18.3Q18.4-18.6 19.25-18.6L19.25-18.6Q20.45-18.6 21.28-18.07 22.1-17.55 22.1-16.45L22.1-16.45Q22.1-13.95 18.6-13.95L18.6-13.95Q17.75-13.95 17.1-13.9 16.45-13.85 16-13.8L16-13.8Q14.2-13.6 13.15-13.6L13.15-13.6Q10.85-13.6 9.25-13.45L9.25-13.45Q9.25-11.6 9.4-9.55L9.4-9.55Q9.4-8.9 9.47-7.55 9.55-6.2 9.55-5.1L9.55-5.1Q9.55-4.15 9.5-3.35 9.45-2.55 9.25-1.8L9.25-1.8ZM48.1-16.05Q48.5-15.35 48.75-14.03 49-12.7 49-11.65L49-11.65Q49-9.7 48.15-6.1L48.15-6.1Q44.7 0.2 37.95 0.2L37.95 0.2Q35.45 0.2 32.85-1.45 30.25-3.1 29.25-5.25L29.25-5.25Q27.9-9.55 27.9-10.7L27.9-10.7Q27.9-12.7 28.77-14.95 29.65-17.2 31-18.85L31-18.85Q31.85-20 34.05-20.83 36.25-21.65 38.05-21.65L38.05-21.65Q41.55-21.65 44-20.33 46.45-19 48.1-16.05L48.1-16.05ZM43.75-8Q44-8.65 44-11.35L44-11.35Q44-12.8 43.47-14.2 42.95-15.6 41.95-16.6L41.95-16.6Q41.85-16.7 41.4-16.93 40.95-17.15 40.17-17.38 39.4-17.6 38.4-17.6L38.4-17.6Q35.6-17.6 34.3-15.35 33-13.1 33-10.25L33-10.25Q33-9.75 33.27-8.35 33.55-6.95 33.75-6.6L33.75-6.6Q33.9-6.25 34.52-5.63 35.15-5 36.07-4.53 37-4.05 38-4.05L38-4.05Q40.25-4.05 41.6-5.13 42.95-6.2 43.75-8L43.75-8ZM73.7-16.05Q74.09-15.35 74.34-14.03 74.59-12.7 74.59-11.65L74.59-11.65Q74.59-9.7 73.75-6.1L73.75-6.1Q70.3 0.2 63.55 0.2L63.55 0.2Q61.05 0.2 58.45-1.45 55.85-3.1 54.85-5.25L54.85-5.25Q53.5-9.55 53.5-10.7L53.5-10.7Q53.5-12.7 54.37-14.95 55.25-17.2 56.6-18.85L56.6-18.85Q57.45-20 59.65-20.83 61.85-21.65 63.65-21.65L63.65-21.65Q67.15-21.65 69.59-20.33 72.05-19 73.7-16.05L73.7-16.05ZM69.34-8Q69.59-8.65 69.59-11.35L69.59-11.35Q69.59-12.8 69.07-14.2 68.55-15.6 67.55-16.6L67.55-16.6Q67.45-16.7 67-16.93 66.55-17.15 65.77-17.38 65-17.6 64-17.6L64-17.6Q61.2-17.6 59.9-15.35 58.6-13.1 58.6-10.25L58.6-10.25Q58.6-9.75 58.87-8.35 59.15-6.95 59.35-6.6L59.35-6.6Q59.5-6.25 60.12-5.63 60.75-5 61.67-4.53 62.6-4.05 63.6-4.05L63.6-4.05Q65.84-4.05 67.2-5.13 68.55-6.2 69.34-8L69.34-8ZM99.44-31.3Q99.44-30.8 99.19-28.55L99.19-28.55Q98.64-23.05 98.64-17.4L98.64-17.4Q98.64-12.45 98.79-9.85 98.94-7.25 99.54-5.88 100.14-4.5 101.39-4.5L101.39-4.5Q103.79-4.5 103.79-2.9L103.79-2.9Q103.79-1.85 102.74-1.13 101.69-0.4 100.44-0.4L100.44-0.4Q98.94-0.4 97.64-1.1 96.34-1.8 95.59-3.25L95.59-3.25Q94.54-1.7 92.57-0.78 90.59 0.15 88.74 0.15L88.74 0.15Q85.89 0.15 83.69-1.05 81.49-2.25 80.29-4.33 79.09-6.4 79.09-8.9L79.09-8.9Q79.09-11.3 79.67-13.53 80.24-15.75 81.24-17.2L81.24-17.2Q82.59-19.1 84.87-20.23 87.14-21.35 89.34-21.35L89.34-21.35Q90.69-21.35 91.89-20.83 93.09-20.3 93.99-19.55L93.99-19.55Q93.99-22.9 93.94-23.75L93.94-23.75 93.94-24.8Q93.94-29.45 94.54-31.6L94.54-31.6Q95.09-33.7 97.19-33.7L97.19-33.7Q98.34-33.7 98.89-33.2 99.44-32.7 99.44-31.3L99.44-31.3ZM84.04-9Q84.04-6.7 85.37-5.3 86.69-3.9 88.54-3.9L88.54-3.9Q91.19-3.9 92.47-5.55 93.74-7.2 93.74-9.8L93.74-9.8 93.69-14.75Q91.74-16.9 89.64-16.9L89.64-16.9Q88.19-16.9 86.92-16.18 85.64-15.45 84.89-14L84.89-14Q84.04-12.35 84.04-9L84.04-9ZM133.04-31.8Q136.39-31.8 139.14-30.98 141.89-30.15 143.64-28.55L143.64-28.55Q146.79-25.7 148.06-22.33 149.34-18.95 149.34-13.7L149.34-13.7Q149.34-12.6 149.06-11.7 148.79-10.8 148.19-9.4L148.19-9.4Q147.44-7.85 147.29-6.95L147.29-6.95Q146.29-5.2 144.01-3.6 141.74-2 139.09-1 136.44 0 134.44 0L134.44 0Q124.79 0 120.69-6.6L120.69-6.6Q119.54-8.45 118.91-10.45 118.29-12.45 118.29-14.35L118.29-14.35Q118.29-19.45 120.11-23.23 121.94-27 125.19-29.1L125.19-29.1Q127.14-30.25 129.26-31.03 131.39-31.8 133.04-31.8L133.04-31.8ZM123.49-14.2Q123.49-11.5 124.71-9.75 125.94-8 128.49-5.95L128.49-5.95Q130.59-5.15 131.34-4.93 132.09-4.7 133.04-4.7L133.04-4.7Q138.09-4.7 141.09-7.45 144.09-10.2 144.09-15L144.09-15Q144.09-18.8 143.24-21 142.39-23.2 140.19-24.95L140.19-24.95Q139.04-25.9 137.26-26.35 135.49-26.8 133.44-26.8L133.44-26.8Q130.34-26.8 128.09-24.98 125.84-23.15 124.66-20.25 123.49-17.35 123.49-14.2L123.49-14.2ZM156.44-32.75Q159.28-32.75 159.28-29.5L159.28-29.5Q159.28-28.6 158.94-26.25L158.94-26.25 158.63-24.05Q158.49-21.5 158.28-20.9L158.28-20.9Q158.13-20.55 157.63-20.18 157.13-19.8 156.53-19.8L156.53-19.8Q155.84-19.8 155.38-20.25 154.94-20.7 154.78-22L154.78-22Q154.69-22.7 154.38-26L154.38-26Q153.94-27.8 153.94-29.85L153.94-29.85Q153.94-32.75 156.44-32.75L156.44-32.75ZM181.68-16.7Q181.68-14.5 179.43-14.5L179.43-14.5Q178.68-14.5 178.18-14.85 177.68-15.2 177.08-15.9L177.08-15.9Q175.58-17.55 174.48-17.55L174.48-17.55Q173.03-17.55 171.66-16.7 170.28-15.85 169.43-14.3 168.58-12.75 168.58-10.85L168.58-10.85Q168.58-8.75 169.41-7.35 170.23-5.95 171.98-4.95L171.98-4.95Q172.63-4.6 173.51-4.4 174.38-4.2 175.03-4.2L175.03-4.2Q176.48-4.2 178.68-5.35L178.68-5.35Q179.48-5.75 180.03-5.95 180.58-6.15 181.18-6.15L181.18-6.15Q181.73-6.15 182.43-5.65 183.13-5.15 183.13-4.4L183.13-4.4Q183.13-2.9 181.73-1.88 180.33-0.85 178.31-0.33 176.28 0.2 174.43 0.2L174.43 0.2Q171.48 0.2 168.96-1.15 166.43-2.5 164.93-4.88 163.43-7.25 163.43-10.25L163.43-10.25Q163.43-13.45 164.88-16.1 166.33-18.75 168.78-20.25 171.23-21.75 174.13-21.75L174.13-21.75Q175.78-21.75 177.53-21.15 179.28-20.55 180.48-19.4 181.68-18.25 181.68-16.7L181.68-16.7ZM192.98-7.75Q192.98-5.85 193.56-4.83 194.13-3.8 195.03-3.8L195.03-3.8Q195.53-3.8 195.98-3.88 196.43-3.95 196.88-3.95L196.88-3.95Q197.38-3.95 197.76-3.45 198.13-2.95 198.13-2.35L198.13-2.35Q198.13-1.15 197.01-0.48 195.88 0.2 193.98 0.2L193.98 0.2Q192.63 0.2 191.26-0.63 189.88-1.45 188.98-3.23 188.08-5 188.08-7.65L188.08-7.65Q188.08-13.35 188.28-17.3L188.28-17.3Q188.53-22 188.53-29.15L188.53-29.15Q188.53-31.4 188.78-32.3L188.78-32.3Q189.08-33 189.76-33.38 190.43-33.75 191.18-33.75L191.18-33.75Q191.93-33.75 192.51-33.5 193.08-33.25 193.28-32.7L193.28-32.7Q193.48-32.1 193.56-31.53 193.63-30.95 193.63-29.9L193.63-29.9Q193.63-27.85 193.48-25.95L193.48-25.95Q193.38-23.65 193.38-22.6L193.38-22.6Q192.98-13.8 192.98-7.75L192.98-7.75ZM221.33-16.05Q221.73-15.35 221.98-14.03 222.23-12.7 222.23-11.65L222.23-11.65Q222.23-9.7 221.38-6.1L221.38-6.1Q217.93 0.2 211.18 0.2L211.18 0.2Q208.68 0.2 206.08-1.45 203.48-3.1 202.48-5.25L202.48-5.25Q201.13-9.55 201.13-10.7L201.13-10.7Q201.13-12.7 202-14.95 202.88-17.2 204.23-18.85L204.23-18.85Q205.08-20 207.28-20.83 209.48-21.65 211.28-21.65L211.28-21.65Q214.78-21.65 217.23-20.33 219.68-19 221.33-16.05L221.33-16.05ZM216.98-8Q217.23-8.65 217.23-11.35L217.23-11.35Q217.23-12.8 216.7-14.2 216.18-15.6 215.18-16.6L215.18-16.6Q215.08-16.7 214.63-16.93 214.18-17.15 213.4-17.38 212.63-17.6 211.63-17.6L211.63-17.6Q208.83-17.6 207.53-15.35 206.23-13.1 206.23-10.25L206.23-10.25Q206.23-9.75 206.5-8.35 206.78-6.95 206.98-6.6L206.98-6.6Q207.13-6.25 207.75-5.63 208.38-5 209.3-4.53 210.23-4.05 211.23-4.05L211.23-4.05Q213.48-4.05 214.83-5.13 216.18-6.2 216.98-8L216.98-8ZM244.88-16.7Q244.88-14.5 242.63-14.5L242.63-14.5Q241.88-14.5 241.38-14.85 240.88-15.2 240.28-15.9L240.28-15.9Q238.78-17.55 237.68-17.55L237.68-17.55Q236.23-17.55 234.85-16.7 233.48-15.85 232.63-14.3 231.78-12.75 231.78-10.85L231.78-10.85Q231.78-8.75 232.6-7.35 233.43-5.95 235.18-4.95L235.18-4.95Q235.83-4.6 236.7-4.4 237.58-4.2 238.23-4.2L238.23-4.2Q239.68-4.2 241.88-5.35L241.88-5.35Q242.68-5.75 243.23-5.95 243.78-6.15 244.38-6.15L244.38-6.15Q244.93-6.15 245.63-5.65 246.33-5.15 246.33-4.4L246.33-4.4Q246.33-2.9 244.93-1.88 243.53-0.85 241.5-0.33 239.48 0.2 237.63 0.2L237.63 0.2Q234.68 0.2 232.15-1.15 229.63-2.5 228.13-4.88 226.63-7.25 226.63-10.25L226.63-10.25Q226.63-13.45 228.08-16.1 229.53-18.75 231.98-20.25 234.43-21.75 237.33-21.75L237.33-21.75Q238.98-21.75 240.73-21.15 242.48-20.55 243.68-19.4 244.88-18.25 244.88-16.7L244.88-16.7ZM254.42 0.2Q253.42 0.2 252.72-0.15 252.02-0.5 251.87-0.9L251.87-0.9Q251.32-2.9 251.32-6.15L251.32-6.15Q251.32-12.15 251.52-15.9L251.52-15.9Q251.72-20.35 251.72-24.45L251.72-24.45Q251.72-25.65 251.42-27.95L251.42-27.95Q251.37-28.35 251.27-29.4 251.17-30.45 251.17-31.35L251.17-31.35Q251.17-32.45 251.95-33.1 252.72-33.75 253.97-33.75L253.97-33.75Q254.97-33.75 255.6-33.13 256.22-32.5 256.22-31.45L256.22-31.45Q256.22-29.85 256.32-26.95L256.32-26.95Q256.42-24.25 256.42-22.9L256.42-22.9Q256.42-21.4 256.32-18.9L256.32-18.9Q256.22-17.4 256.22-16.7L256.22-16.7Q256.22-14.5 256.27-13.05L256.27-13.05Q258.12-14.9 261.12-17.4 264.12-19.9 265.77-20.9L265.77-20.9Q267.52-21.95 268.07-21.95L268.07-21.95Q269.12-21.95 269.87-21.5 270.62-21.05 270.62-20.2L270.62-20.2Q270.62-19.35 270.37-18.85 270.12-18.35 269.47-17.85L269.47-17.85 263.02-13.15Q264.12-12.6 264.9-11.75 265.67-10.9 266.47-9.65L266.47-9.65Q268.17-6.85 269.2-5.55 270.22-4.25 271.07-4.25L271.07-4.25 272.32-4.3Q272.67-4.3 272.95-3.9 273.22-3.5 273.22-2.75L273.22-2.75Q273.22-1.6 272.1-0.9 270.97-0.2 269.57-0.2L269.57-0.2Q267.62-0.2 266.12-1.73 264.62-3.25 263.27-5.85L263.27-5.85Q261.32-9.55 259.42-10.25L259.42-10.25 256.22-7.65 256.42-2.2Q256.42-0.9 255.75-0.35 255.07 0.2 254.42 0.2L254.42 0.2Z" opacity="1" transform="matrix(1,0,0,1,0,0)" fill="white" class="wordmark-text-0" id="SvgjsPath2244"></path></svg></g></svg></g></svg></g></svg></g></svg></g><defs><mask></mask></defs></svg><rect width="395.52" height="49.79753013165214" fill="black" stroke="none" visibility="hidden"></rect></g></mask><linearGradient x1="0" x2="1" y1="0.5" y2="0.5" id="dcd278fe-39bc-4c19-8dfe-62efd3ea6714"><stop stop-color="#f00b51" offset="0"></stop><stop stop-color="#730062" offset="1"></stop></linearGradient><rect width="395.52" height="49.79753013165214" fill="url(#dcd278fe-39bc-4c19-8dfe-62efd3ea6714)" mask="url(#d82ae5fa-1802-4fe0-8252-0bbeeb98bfd2)" data-fill-palette-color="primary"></rect></svg><rect width="395.52" height="49.79753013165214" fill="none" stroke="none" visibility="hidden"></rect></g></svg></g></svg>